{
  "asset": { "version": "2.0", "generator": "wayfinder-test" },
  "scene": 0,
  "scenes": [{ "nodes": [0] }],
  "nodes": [{ "mesh": 0 }],
  "meshes": [
    {
      "primitives": [
        {
          "attributes": { "POSITION": 0, "NORMAL": 1, "TEXCOORD_0": 2 },
          "indices": 3
        }
      ]
    }
  ],
  "accessors": [
    { "bufferView": 0, "componentType": 5126, "count": 3, "type": "VEC3", "max": [1.0, 1.0, 0.0], "min": [-1.0, -1.0, 0.0] },
    { "bufferView": 0, "byteOffset": 36, "componentType": 5126, "count": 3, "type": "VEC3", "max": [0.0, 0.0, 1.0], "min": [0.0, 0.0, 1.0] },
    { "bufferView": 0, "byteOffset": 72, "componentType": 5126, "count": 3, "type": "VEC2", "max": [1.0, 1.0], "min": [0.0, 0.0] },
    { "bufferView": 1, "componentType": 5125, "count": 3, "type": "SCALAR" }
  ],
  "bufferViews": [
    { "buffer": 0, "byteOffset": 0, "byteLength": 96, "target": 34962 },
    { "buffer": 0, "byteOffset": 96, "byteLength": 12, "target": 34963 }
  ],
  "buffers": [
    {
      "byteLength": 108,
      "uri": "data:application/octet-stream;base64,"
    }
  ]
}
